<svg width="340" height="340" viewBox="0 0 340 340" fill="none" xmlns="http://www.w3.org/2000/svg">
<path d="M170.001 0C154.771 0 139.999 1.99325 125.951 5.75521L140.561 60.651C149.977 58.1135 159.786 56.6667 170.001 56.6667C180.215 56.6667 190.024 58.1135 199.441 60.651L214.05 5.75521C200.002 1.99325 185.23 0 170.001 0Z" fill="#FEFE33"/>
<path d="M170.001 340C185.23 340 200.002 338.007 214.05 334.245L199.441 279.349C190.024 281.887 180.215 283.333 170.001 283.333C159.786 283.333 149.977 281.887 140.561 279.349L125.951 334.245C139.999 338.007 154.771 340 170.001 340Z" fill="#800080"/>
<path d="M340.001 170C340.001 154.771 338.007 139.999 334.245 125.951L279.35 140.56C281.887 149.977 283.334 159.786 283.334 170C283.334 180.215 281.887 190.024 279.35 199.44L334.245 214.05C338.007 200.001 340.001 185.23 340.001 170Z" fill="#FF5D00"/>
<path d="M0 170C0 185.23 1.99325 200.001 5.75521 214.05L60.651 199.44C58.1135 190.024 56.6667 180.215 56.6667 170C56.6667 159.786 58.1135 149.977 60.651 140.56L5.75521 125.951C1.99325 139.999 0 154.771 0 170Z" fill="#158466"/>
<path d="M254.999 22.7759C241.81 15.1612 228.021 9.50156 213.974 5.73535L199.178 60.5811C208.601 63.0919 217.82 66.7434 226.666 71.8508C235.512 76.958 243.283 83.1155 250.17 90.0214L290.27 49.7849C279.984 39.5027 268.188 30.3907 254.999 22.7759Z" fill="#FFC00B"/>
<path d="M85.0008 317.224C98.19 324.839 111.979 330.499 126.026 334.265L140.822 279.419C131.399 276.908 122.18 273.257 113.334 268.15C104.488 263.042 96.7165 256.885 89.8304 249.979L49.7305 290.215C60.0156 300.498 71.8116 309.61 85.0008 317.224Z" fill="#55308D"/>
<path d="M317.224 255C324.839 241.811 330.498 228.022 334.265 213.975L279.419 199.179C276.908 208.602 273.257 217.821 268.149 226.667C263.042 235.513 256.884 243.284 249.979 250.171L290.215 290.271C300.497 279.985 309.609 268.189 317.224 255Z" fill="#FE2712"/>
<path d="M22.775 84.9999C15.1602 98.189 9.50051 111.978 5.73438 126.025L60.5803 140.821C63.091 131.398 66.7423 122.179 71.8497 113.333C76.957 104.487 83.1146 96.7156 90.0204 89.8295L49.7839 49.7295C39.5017 60.0146 30.3897 71.8107 22.775 84.9999Z" fill="#00A934"/>
<path d="M85.0008 22.7759C71.8116 30.3907 60.0156 39.5027 49.7305 49.7849L89.8304 90.0214C96.7165 83.1155 104.488 76.958 113.334 71.8508C122.18 66.7434 131.399 63.0919 140.822 60.5811L126.026 5.73535C111.979 9.50156 98.19 15.1612 85.0008 22.7759Z" fill="#80D41A"/>
<path d="M254.999 317.224C268.188 309.61 279.984 300.498 290.27 290.215L250.17 249.979C243.283 256.885 235.512 263.042 226.666 268.15C217.82 273.257 208.601 276.908 199.178 279.419L213.974 334.265C228.021 330.499 241.81 324.839 254.999 317.224Z" fill="#C4037D"/>
<path d="M317.224 84.9999C309.609 71.8107 300.497 60.0146 290.215 49.7295L249.979 89.8295C256.884 96.7156 263.042 104.487 268.149 113.333C273.257 122.179 276.908 131.398 279.419 140.821L334.265 126.025C330.498 111.978 324.839 98.189 317.224 84.9999Z" fill="#FF8001"/>
<path d="M22.775 255C30.3897 268.189 39.5017 279.985 49.7839 290.271L90.0204 250.171C83.1146 243.284 76.957 235.513 71.8497 226.667C66.7423 217.821 63.091 208.602 60.5803 199.179L5.73438 213.975C9.50051 228.022 15.1602 241.811 22.775 255Z" fill="#0247FE"/>
<path d="M71.8496 226.667H268.149L169.999 283.333L71.8496 226.667Z" fill="#800080"/>
<path d="M169.999 170L120.924 141.667L169.999 56.6665L219.073 141.667L169.999 170Z" fill="#FEFE33"/>
<path d="M169.999 56.6665L71.8496 226.666V113.333L169.999 56.6665Z" fill="#00A934"/>
<path d="M170 170L219.075 141.667L268.15 226.666H170V170Z" fill="#FE2712"/>
<path d="M268.149 226.666L170 56.6665L268.15 113.333L268.149 226.666Z" fill="#FF8001"/>
<path d="M169.999 170V226.666H71.8496L120.925 141.667L169.999 170Z" fill="#0247FE"/>
</svg>
