<svg width="1170" height="725" viewBox="0 0 1170 725" fill="none" xmlns="http://www.w3.org/2000/svg">
<path d="M721.355 3.39021V720.939H3.80621V3.39021H721.355ZM722.489 2.28516H2.70117V722.044H722.46V2.28516H722.489Z" fill="white" fill-opacity="0.2"/>
<path d="M1166.19 3.39021V720.939H3.80621V3.39021H1166.19ZM1167.3 2.28516H2.70117V722.044H1167.3V2.28516Z" fill="white" fill-opacity="0.2"/>
<path d="M1166.19 3.39021V445.988H723.595V3.39021H1166.19ZM1167.3 2.28516H722.49V447.093H1167.3V2.28516Z" fill="white" fill-opacity="0.2"/>
<path d="M1166.19 3.39021V720.881H723.595V3.39021H1166.19ZM1167.3 2.28516H722.49V721.986H1167.3V2.28516Z" fill="white" fill-opacity="0.2"/>
<path d="M1166.19 448.198V720.91H893.48V448.198H1166.19ZM1167.3 447.093H892.375V722.015H1167.3V447.093Z" fill="white" fill-opacity="0.2"/>
<path d="M1166.19 448.198V720.91H723.595V448.198H1166.19ZM1167.3 447.093H722.49V722.015H1167.3V447.093Z" fill="white" fill-opacity="0.2"/>
<path d="M891.27 553.206V720.91H723.566V553.206H891.27ZM892.375 552.101H722.461V722.015H892.375V552.101Z" fill="white" fill-opacity="0.2"/>
<path d="M891.27 448.198V720.91H723.566V448.198H891.27ZM892.375 447.093H722.461V722.015H892.375V447.093Z" fill="white" fill-opacity="0.2"/>
<path d="M826.393 448.198V550.996H723.595V448.198H826.393ZM827.498 447.093H722.49V552.101H827.498V447.093Z" fill="white" fill-opacity="0.2"/>
<path d="M891.27 448.198V550.996H723.566V448.198H891.27ZM892.375 447.093H722.461V552.101H892.375V447.093Z" fill="white" fill-opacity="0.2"/>
<path d="M891.27 448.198V510.865H828.603V448.198H891.27ZM892.375 447.093H827.469V511.999H892.375V447.093Z" fill="white" fill-opacity="0.2"/>
<path d="M891.27 448.198V550.996H828.603V448.198H891.27ZM892.375 447.093H827.469V552.101H892.375V447.093Z" fill="white" fill-opacity="0.2"/>
<path d="M891.27 513.104V550.995H853.378V513.104H891.27ZM892.375 511.999H852.273V552.1H892.375V511.999Z" fill="white" fill-opacity="0.2"/>
<path d="M891.27 513.104V550.995H828.574V513.104H891.27ZM892.375 511.999H827.469V552.1H892.375V511.999Z" fill="white" fill-opacity="0.2"/>
<path d="M851.169 528.401V550.967H828.603V528.401H851.169ZM852.274 527.296H827.498V552.072H852.274V527.296Z" fill="white" fill-opacity="0.2"/>
<path d="M851.169 513.104V550.995H828.603V513.104H851.169ZM852.274 511.999H827.498V552.1H852.274V511.999Z" fill="white" fill-opacity="0.2"/>
<path d="M841.689 513.104V526.219H828.574V513.104H841.689ZM842.794 511.999H827.469V527.324H842.794V511.999Z" fill="white" fill-opacity="0.2"/>
<path d="M851.169 513.104V526.219H828.603V513.104H851.169ZM852.274 511.999H827.498V527.324H852.274V511.999Z" fill="white" fill-opacity="0.2"/>
<path d="M2.70226 724.254C1.4809 724.254 0.492188 723.266 0.492188 722.044C0.492188 529.186 75.5767 347.901 211.962 211.516C348.318 75.1595 529.632 0.0458984 722.49 0.0458984C968.973 0.0458984 1169.51 200.582 1169.51 447.064C1169.51 599.879 1045.19 724.196 892.376 724.196C797.459 724.196 720.251 646.989 720.251 552.072V549.861C721.473 491.76 769.106 444.854 827.469 444.854C864.488 444.854 894.586 474.951 894.586 511.97C894.586 535.292 875.597 554.282 852.274 554.282C837.386 554.282 825.259 542.155 825.259 527.266C825.259 517.612 833.111 509.731 842.794 509.731C844.016 509.731 845.004 510.72 845.004 511.941C845.004 513.163 844.016 514.151 842.794 514.151C835.553 514.151 829.679 520.025 829.679 527.266C829.679 539.713 839.799 549.832 852.245 549.832C873.154 549.832 890.137 532.821 890.137 511.941C890.137 477.365 862.016 449.245 827.44 449.245C799.989 449.245 774.166 459.946 754.74 479.342C735.315 498.768 724.642 524.562 724.642 552.042V553.526C725.457 645.302 800.367 719.747 892.347 719.747C1042.72 719.747 1165.03 597.407 1165.03 447.035C1165.03 202.995 966.472 4.43701 722.432 4.43701C326.77 4.43701 4.88326 326.323 4.88326 721.986C4.88326 723.207 3.89455 724.196 2.67319 724.196L2.70226 724.254Z" fill="white" fill-opacity="0.2"/>
</svg>
