<svg width="466" height="466" viewBox="0 0 466 466" fill="none" xmlns="http://www.w3.org/2000/svg">
<path d="M217.898 55.4137C223.68 42.2761 242.32 42.276 248.102 55.4137L270.19 105.6C276.833 120.694 293.475 128.708 309.418 124.491L362.427 110.47C376.303 106.799 387.925 121.372 381.259 134.084L355.793 182.643C348.134 197.249 352.244 215.256 365.482 225.092L409.494 257.793C421.016 266.354 416.868 284.526 402.773 287.24L348.931 297.607C332.736 300.725 321.22 315.165 321.784 331.648L323.658 386.447C324.149 400.793 307.355 408.88 296.445 399.552L254.77 363.92C242.235 353.203 223.765 353.203 211.23 363.92L169.555 399.552C158.645 408.88 141.851 400.793 142.342 386.447L144.216 331.648C144.78 315.165 133.264 300.725 117.069 297.607L63.2267 287.24C49.1317 284.526 44.984 266.354 56.5057 257.793L100.518 225.092C113.756 215.256 117.866 197.249 110.207 182.643L84.7415 134.084C78.0752 121.372 89.6968 106.799 103.573 110.47L156.582 124.491C172.525 128.708 189.167 120.694 195.81 105.6L217.898 55.4137Z" fill="#5541BA" stroke="#B1F532" stroke-width="17"/>
<path d="M229.69 181C241.777 181 252.44 183.193 261.68 187.58C270.92 191.92 278.083 198.057 283.17 205.99C288.303 213.923 290.87 223.093 290.87 233.5C290.87 243.907 288.303 253.077 283.17 261.01C278.083 268.943 270.92 275.103 261.68 279.49C252.44 283.83 241.777 286 229.69 286H179.78V181H229.69ZM231.44 265C238.533 265 244.74 263.717 250.06 261.15C255.427 258.537 259.557 254.85 262.45 250.09C265.39 245.33 266.86 239.8 266.86 233.5C266.86 227.2 265.39 221.67 262.45 216.91C259.557 212.15 255.427 208.487 250.06 205.92C244.74 203.307 238.533 202 231.44 202H203.44V265H231.44Z" fill="#B1F532"/>
</svg>
