<svg width="388" height="388" viewBox="0 0 388 388" fill="none" xmlns="http://www.w3.org/2000/svg">
<g clip-path="url(#clip0_709_3)">
<path d="M177.898 23.4137C183.68 10.2761 202.32 10.276 208.102 23.4137L230.19 73.5996C236.833 88.6941 253.475 96.7081 269.418 92.4908L322.427 78.4695C336.303 74.799 347.925 89.3721 341.259 102.084L315.793 150.643C308.134 165.249 312.244 183.256 325.482 193.092L369.494 225.793C381.016 234.354 376.868 252.526 362.773 255.24L308.931 265.607C292.736 268.725 281.22 283.165 281.784 299.648L283.658 354.447C284.149 368.793 267.355 376.88 256.445 367.552L214.77 331.92C202.235 321.203 183.765 321.203 171.23 331.92L129.555 367.552C118.645 376.88 101.851 368.793 102.342 354.447L104.216 299.648C104.78 283.165 93.2637 268.725 77.0693 265.607L23.2267 255.24C9.13174 252.526 4.98402 234.354 16.5057 225.793L60.5182 193.092C73.756 183.256 77.866 165.249 70.2068 150.643L44.7415 102.084C38.0752 89.3721 49.6968 74.799 63.5734 78.4695L116.582 92.4908C132.525 96.7081 149.167 88.6941 155.81 73.5996L177.898 23.4137Z" fill="#5541BA" stroke="#B1F532" stroke-width="17"/>
<path d="M189.69 149C201.777 149 212.44 151.193 221.68 155.58C230.92 159.92 238.083 166.057 243.17 173.99C248.303 181.923 250.87 191.093 250.87 201.5C250.87 211.907 248.303 221.077 243.17 229.01C238.083 236.943 230.92 243.103 221.68 247.49C212.44 251.83 201.777 254 189.69 254H139.78V149H189.69ZM191.44 233C198.533 233 204.74 231.717 210.06 229.15C215.427 226.537 219.557 222.85 222.45 218.09C225.39 213.33 226.86 207.8 226.86 201.5C226.86 195.2 225.39 189.67 222.45 184.91C219.557 180.15 215.427 176.487 210.06 173.92C204.74 171.307 198.533 170 191.44 170H163.44V233H191.44Z" fill="#B1F532"/>
</g>
<defs>
<clipPath id="clip0_709_3">
<rect width="388" height="388" fill="white"/>
</clipPath>
</defs>
</svg>
